mtllib headset.mtl
usemtl WhiteMat
v 0.5100 0.1750 -0.0400
v 0.5900 0.1750 -0.0400
v 0.5100 0.2250 -0.0400
v 0.5900 0.2250 -0.0400
v 0.5100 0.1750 0.0400
v 0.5900 0.1750 0.0400
v 0.5100 0.2250 0.0400
v 0.5900 0.2250 0.0400
v 0.4913 0.3174 -0.0400
v 0.5713 0.3174 -0.0400
v 0.4913 0.3674 -0.0400
v 0.5713 0.3674 -0.0400
v 0.4913 0.3174 0.0400
v 0.5713 0.3174 0.0400
v 0.4913 0.3674 0.0400
v 0.5713 0.3674 0.0400
v 0.4363 0.4500 -0.0400
v 0.5163 0.4500 -0.0400
v 0.4363 0.5000 -0.0400
v 0.5163 0.5000 -0.0400
v 0.4363 0.4500 0.0400
v 0.5163 0.4500 0.0400
v 0.4363 0.5000 0.0400
v 0.5163 0.5000 0.0400
v 0.3489 0.5639 -0.0400
v 0.4289 0.5639 -0.0400
v 0.3489 0.6139 -0.0400
v 0.4289 0.6139 -0.0400
v 0.3489 0.5639 0.0400
v 0.4289 0.5639 0.0400
v 0.3489 0.6139 0.0400
v 0.4289 0.6139 0.0400
v 0.2350 0.6513 -0.0400
v 0.3150 0.6513 -0.0400
v 0.2350 0.7013 -0.0400
v 0.3150 0.7013 -0.0400
v 0.2350 0.6513 0.0400
v 0.3150 0.6513 0.0400
v 0.2350 0.7013 0.0400
v 0.3150 0.7013 0.0400
v 0.1024 0.7063 -0.0400
v 0.1824 0.7063 -0.0400
v 0.1024 0.7563 -0.0400
v 0.1824 0.7563 -0.0400
v 0.1024 0.7063 0.0400
v 0.1824 0.7063 0.0400
v 0.1024 0.7563 0.0400
v 0.1824 0.7563 0.0400
v -0.0400 0.7250 -0.0400
v 0.0400 0.7250 -0.0400
v -0.0400 0.7750 -0.0400
v 0.0400 0.7750 -0.0400
v -0.0400 0.7250 0.0400
v 0.0400 0.7250 0.0400
v -0.0400 0.7750 0.0400
v 0.0400 0.7750 0.0400
v -0.1824 0.7063 -0.0400
v -0.1024 0.7063 -0.0400
v -0.1824 0.7563 -0.0400
v -0.1024 0.7563 -0.0400
v -0.1824 0.7063 0.0400
v -0.1024 0.7063 0.0400
v -0.1824 0.7563 0.0400
v -0.1024 0.7563 0.0400
v -0.3150 0.6513 -0.0400
v -0.2350 0.6513 -0.0400
v -0.3150 0.7013 -0.0400
v -0.2350 0.7013 -0.0400
v -0.3150 0.6513 0.0400
v -0.2350 0.6513 0.0400
v -0.3150 0.7013 0.0400
v -0.2350 0.7013 0.0400
v -0.4289 0.5639 -0.0400
v -0.3489 0.5639 -0.0400
v -0.4289 0.6139 -0.0400
v -0.3489 0.6139 -0.0400
v -0.4289 0.5639 0.0400
v -0.3489 0.5639 0.0400
v -0.4289 0.6139 0.0400
v -0.3489 0.6139 0.0400
v -0.5163 0.4500 -0.0400
v -0.4363 0.4500 -0.0400
v -0.5163 0.5000 -0.0400
v -0.4363 0.5000 -0.0400
v -0.5163 0.4500 0.0400
v -0.4363 0.4500 0.0400
v -0.5163 0.5000 0.0400
v -0.4363 0.5000 0.0400
v -0.5713 0.3174 -0.0400
v -0.4913 0.3174 -0.0400
v -0.5713 0.3674 -0.0400
v -0.4913 0.3674 -0.0400
v -0.5713 0.3174 0.0400
v -0.4913 0.3174 0.0400
v -0.5713 0.3674 0.0400
v -0.4913 0.3674 0.0400
v -0.5900 0.1750 -0.0400
v -0.5100 0.1750 -0.0400
v -0.5900 0.2250 -0.0400
v -0.5100 0.2250 -0.0400
v -0.5900 0.1750 0.0400
v -0.5100 0.1750 0.0400
v -0.5900 0.2250 0.0400
v -0.5100 0.2250 0.0400
v -0.6400 -0.1400 -0.0600
v -0.4600 -0.1400 -0.0600
v -0.6400 0.1400 -0.0600
v -0.4600 0.1400 -0.0600
v -0.6400 -0.1400 0.0600
v -0.4600 -0.1400 0.0600
v -0.6400 0.1400 0.0600
v -0.4600 0.1400 0.0600
v 0.4600 -0.1400 -0.0600
v 0.6400 -0.1400 -0.0600
v 0.4600 0.1400 -0.0600
v 0.6400 0.1400 -0.0600
v 0.4600 -0.1400 0.0600
v 0.6400 -0.1400 0.0600
v 0.4600 0.1400 0.0600
v 0.6400 0.1400 0.0600
v -0.6450 -0.0300 -0.0100
v -0.5950 -0.0300 -0.0100
v -0.6450 -0.0100 -0.0100
v -0.5950 -0.0100 -0.0100
v -0.6450 -0.0300 0.0100
v -0.5950 -0.0300 0.0100
v -0.6450 -0.0100 0.0100
v -0.5950 -0.0100 0.0100
v -0.7050 -0.0600 -0.0100
v -0.6550 -0.0600 -0.0100
v -0.7050 -0.0400 -0.0100
v -0.6550 -0.0400 -0.0100
v -0.7050 -0.0600 0.0100
v -0.6550 -0.0600 0.0100
v -0.7050 -0.0400 0.0100
v -0.6550 -0.0400 0.0100
v -0.7650 -0.0900 -0.0100
v -0.7150 -0.0900 -0.0100
v -0.7650 -0.0700 -0.0100
v -0.7150 -0.0700 -0.0100
v -0.7650 -0.0900 0.0100
v -0.7150 -0.0900 0.0100
v -0.7650 -0.0700 0.0100
v -0.7150 -0.0700 0.0100
v -0.8250 -0.1200 -0.0100
v -0.7750 -0.1200 -0.0100
v -0.8250 -0.1000 -0.0100
v -0.7750 -0.1000 -0.0100
v -0.8250 -0.1200 0.0100
v -0.7750 -0.1200 0.0100
v -0.8250 -0.1000 0.0100
v -0.7750 -0.1000 0.0100
v -0.8850 -0.1500 -0.0100
v -0.8350 -0.1500 -0.0100
v -0.8850 -0.1300 -0.0100
v -0.8350 -0.1300 -0.0100
v -0.8850 -0.1500 0.0100
v -0.8350 -0.1500 0.0100
v -0.8850 -0.1300 0.0100
v -0.8350 -0.1300 0.0100
v -0.9450 -0.1800 -0.0100
v -0.8950 -0.1800 -0.0100
v -0.9450 -0.1600 -0.0100
v -0.8950 -0.1600 -0.0100
v -0.9450 -0.1800 0.0100
v -0.8950 -0.1800 0.0100
v -0.9450 -0.1600 0.0100
v -0.8950 -0.1600 0.0100
f 1 2 4
f 1 4 3
f 5 6 8
f 5 8 7
f 1 2 6
f 1 6 5
f 3 4 8
f 3 8 7
f 1 3 7
f 1 7 5
f 2 4 8
f 2 8 6
f 9 10 12
f 9 12 11
f 13 14 16
f 13 16 15
f 9 10 14
f 9 14 13
f 11 12 16
f 11 16 15
f 9 11 15
f 9 15 13
f 10 12 16
f 10 16 14
f 17 18 20
f 17 20 19
f 21 22 24
f 21 24 23
f 17 18 22
f 17 22 21
f 19 20 24
f 19 24 23
f 17 19 23
f 17 23 21
f 18 20 24
f 18 24 22
f 25 26 28
f 25 28 27
f 29 30 32
f 29 32 31
f 25 26 30
f 25 30 29
f 27 28 32
f 27 32 31
f 25 27 31
f 25 31 29
f 26 28 32
f 26 32 30
f 33 34 36
f 33 36 35
f 37 38 40
f 37 40 39
f 33 34 38
f 33 38 37
f 35 36 40
f 35 40 39
f 33 35 39
f 33 39 37
f 34 36 40
f 34 40 38
f 41 42 44
f 41 44 43
f 45 46 48
f 45 48 47
f 41 42 46
f 41 46 45
f 43 44 48
f 43 48 47
f 41 43 47
f 41 47 45
f 42 44 48
f 42 48 46
f 49 50 52
f 49 52 51
f 53 54 56
f 53 56 55
f 49 50 54
f 49 54 53
f 51 52 56
f 51 56 55
f 49 51 55
f 49 55 53
f 50 52 56
f 50 56 54
f 57 58 60
f 57 60 59
f 61 62 64
f 61 64 63
f 57 58 62
f 57 62 61
f 59 60 64
f 59 64 63
f 57 59 63
f 57 63 61
f 58 60 64
f 58 64 62
f 65 66 68
f 65 68 67
f 69 70 72
f 69 72 71
f 65 66 70
f 65 70 69
f 67 68 72
f 67 72 71
f 65 67 71
f 65 71 69
f 66 68 72
f 66 72 70
f 73 74 76
f 73 76 75
f 77 78 80
f 77 80 79
f 73 74 78
f 73 78 77
f 75 76 80
f 75 80 79
f 73 75 79
f 73 79 77
f 74 76 80
f 74 80 78
f 81 82 84
f 81 84 83
f 85 86 88
f 85 88 87
f 81 82 86
f 81 86 85
f 83 84 88
f 83 88 87
f 81 83 87
f 81 87 85
f 82 84 88
f 82 88 86
f 89 90 92
f 89 92 91
f 93 94 96
f 93 96 95
f 89 90 94
f 89 94 93
f 91 92 96
f 91 96 95
f 89 91 95
f 89 95 93
f 90 92 96
f 90 96 94
f 97 98 100
f 97 100 99
f 101 102 104
f 101 104 103
f 97 98 102
f 97 102 101
f 99 100 104
f 99 104 103
f 97 99 103
f 97 103 101
f 98 100 104
f 98 104 102
f 105 106 108
f 105 108 107
f 109 110 112
f 109 112 111
f 105 106 110
f 105 110 109
f 107 108 112
f 107 112 111
f 105 107 111
f 105 111 109
f 106 108 112
f 106 112 110
f 113 114 116
f 113 116 115
f 117 118 120
f 117 120 119
f 113 114 118
f 113 118 117
f 115 116 120
f 115 120 119
f 113 115 119
f 113 119 117
f 114 116 120
f 114 120 118
f 121 122 124
f 121 124 123
f 125 126 128
f 125 128 127
f 121 122 126
f 121 126 125
f 123 124 128
f 123 128 127
f 121 123 127
f 121 127 125
f 122 124 128
f 122 128 126
f 129 130 132
f 129 132 131
f 133 134 136
f 133 136 135
f 129 130 134
f 129 134 133
f 131 132 136
f 131 136 135
f 129 131 135
f 129 135 133
f 130 132 136
f 130 136 134
f 137 138 140
f 137 140 139
f 141 142 144
f 141 144 143
f 137 138 142
f 137 142 141
f 139 140 144
f 139 144 143
f 137 139 143
f 137 143 141
f 138 140 144
f 138 144 142
f 145 146 148
f 145 148 147
f 149 150 152
f 149 152 151
f 145 146 150
f 145 150 149
f 147 148 152
f 147 152 151
f 145 147 151
f 145 151 149
f 146 148 152
f 146 152 150
f 153 154 156
f 153 156 155
f 157 158 160
f 157 160 159
f 153 154 158
f 153 158 157
f 155 156 160
f 155 160 159
f 153 155 159
f 153 159 157
f 154 156 160
f 154 160 158
f 161 162 164
f 161 164 163
f 165 166 168
f 165 168 167
f 161 162 166
f 161 166 165
f 163 164 168
f 163 168 167
f 161 163 167
f 161 167 165
f 162 164 168
f 162 168 166